<?xml version="1.0" encoding="utf-8"?>
<!-- Generator: Adobe Illustrator 22.1.0, SVG Export Plug-In . SVG Version: 6.00 Build 0)  -->
<svg version="1.1" id="Layer_1" xmlns="http://www.w3.org/2000/svg" xmlns:xlink="http://www.w3.org/1999/xlink" x="0px" y="0px"
	 viewBox="0 0 32 26" style="enable-background:new 0 0 32 26;" xml:space="preserve">
<style type="text/css">
	.st0{fill:#E9E7E8;}
</style>
<g>
	<g>
		<g>
			<path class="st0" d="M29.1,26H2.9C1.3,26,0,24.7,0,23.2V6.3c0-1.6,1.3-2.8,2.8-2.8h5.7c0.5,0,0.9-0.4,0.9-0.9
				C9.5,1.1,10.6,0,12,0h8c1.4,0,2.5,1.1,2.5,2.5c0,0.5,0.4,0.9,0.9,0.9h5.7c1.6,0,2.8,1.3,2.8,2.8v16.9C32,24.7,30.7,26,29.1,26z
				 M2.9,4.5C1.9,4.5,1,5.3,1,6.3v16.9c0,1,0.8,1.8,1.8,1.8h26.3c1,0,1.8-0.8,1.8-1.8V6.3c0-1-0.8-1.8-1.8-1.8h-5.7
				c-1.1,0-1.9-0.9-1.9-1.9C21.5,1.7,20.8,1,20,1h-8c-0.8,0-1.5,0.7-1.5,1.5c0,1.1-0.9,1.9-1.9,1.9H2.9z"/>
		</g>
		<g>
			<path class="st0" d="M16,21.3c-3.8,0-7-3.1-7-7s3.1-7,7-7s7,3.1,7,7S19.8,21.3,16,21.3z M16,8.4c-3.3,0-6,2.7-6,6
				c0,3.3,2.7,6,6,6c3.3,0,6-2.7,6-6C22,11.1,19.3,8.4,16,8.4z"/>
		</g>
		<g>
			<rect x="24.1" y="6.3" class="st0" width="3.7" height="1"/>
		</g>
	</g>
</g>
</svg>
