<?xml version="1.0" encoding="utf-8"?>
<!-- Generator: Adobe Illustrator 22.1.0, SVG Export Plug-In . SVG Version: 6.00 Build 0)  -->
<svg version="1.1" id="Layer_1" xmlns="http://www.w3.org/2000/svg" xmlns:xlink="http://www.w3.org/1999/xlink" x="0px" y="0px"
	 viewBox="0 0 135 50" style="enable-background:new 0 0 135 50;" xml:space="preserve">
<style type="text/css">
	.st0{fill:#E9E6E7;}
</style>
<g>
	<g>
		<path class="st0" d="M134.8,0H0.2v50h134.6V0L134.8,0L134.8,0z M132.5,2.3v45.4H2.5V2.3H132.5"/>
		<polygon class="st0" points="35.9,13.1 35.9,36.9 37.8,37.1 37.8,38.5 28.6,38.5 28.6,37.1 30.6,36.9 30.6,26 18.9,26 18.9,36.9 
			20.7,37.1 20.7,38.5 11.7,38.5 11.7,37.1 13.5,36.9 13.5,13.1 11.7,12.8 11.7,11.5 20.7,11.5 20.7,12.8 18.9,13.1 18.9,23.3 
			30.6,23.3 30.6,13.1 28.6,12.8 28.6,11.5 37.8,11.5 37.8,12.8 35.9,13.1 35.9,13.1 		"/>
		<path class="st0" d="M48.4,37.1l1.7,0.2v1.2h-8.4v-1.2l1.7-0.2V20.7l-1.7-0.2v-1.2h6.7V37.1L48.4,37.1L48.4,37.1z M49,13.2
			c0,1.8-1.2,3.2-2.9,3.2c-1.7,0-2.9-1.2-2.9-3c0-1.7,1.2-3.1,2.9-3.1C47.8,10.2,49,11.6,49,13.2L49,13.2L49,13.2z"/>
		<polygon class="st0" points="53.8,37.3 55.5,37.1 55.5,12.1 53.8,11.9 53.8,10.6 60.5,10.6 60.5,37.1 62.2,37.3 62.2,38.5 
			53.8,38.5 53.8,37.3 53.8,37.3 		"/>
		<path class="st0" d="M72.4,19.3h4.5v1.8h-4.5v11.5c0,3,0.6,3.9,3.3,3.9c1,0,1.9,0,2.7-0.2v1.3c-2.4,0.9-4.5,1.2-6.2,1.2
			c-3.9,0-4.8-1.8-4.8-5.1V21.1h-3.5v-1.8h3.7v-4l4.9-1.5V19.3L72.4,19.3L72.4,19.3z"/>
		<path class="st0" d="M99.6,29.1c0,6-4,10-10.3,10c-6.1,0-10-2.6-10-10c0-6.2,4-10.3,10.4-10.3C95.8,18.7,99.6,22.5,99.6,29.1
			L99.6,29.1L99.6,29.1z M94.1,29c0-6.1-1.8-8.7-4.7-8.7c-2.8,0-4.6,2.5-4.6,8.7c0,6.1,1.8,8.7,4.6,8.7C92.4,37.6,94.1,35.2,94.1,29
			L94.1,29L94.1,29z"/>
		<path class="st0" d="M123.3,37.3v1.2h-8.4v-1.2l1.7-0.2v-11c0-3-1.1-4.4-3.4-4.4c-1.1,0-2.8,0.7-4,1.6v13.8l1.7,0.2v1.2h-8.5v-1.2
			l1.7-0.2V20.9l-1.7-0.2v-1.4h6.7v2.7c2.1-1.7,4.1-3,6.9-3c3.8,0,5.5,2.2,5.5,6.6v11.6L123.3,37.3L123.3,37.3L123.3,37.3z"/>
	</g>
</g>
</svg>
