<?xml version="1.0" encoding="utf-8"?>
<!-- Generator: Adobe Illustrator 22.1.0, SVG Export Plug-In . SVG Version: 6.00 Build 0)  -->
<svg version="1.1" id="Layer_1" xmlns="http://www.w3.org/2000/svg" xmlns:xlink="http://www.w3.org/1999/xlink" x="0px" y="0px"
	 viewBox="0 0 176 75" style="enable-background:new 0 0 176 75;" xml:space="preserve">
<style type="text/css">
	.st0{fill:#303339;}
</style>
<g>
	<polygon class="st0" points="0.3,0 0.3,69.6 31.6,69.6 31.6,66.6 3.2,66.6 3.2,3 172.8,3 172.8,66.6 144.1,66.6 144.1,69.6 
		175.7,69.6 175.7,0 	"/>
	<g>
		<path class="st0" d="M47.5,74.8v-5.7h-7.3v5.7h-2.5V61.3h2.5v5.6h7.3v-5.6H50v13.5H47.5z"/>
		<path class="st0" d="M69.5,68c0,3.8-3.2,7-7.2,7s-7.2-3.1-7.2-7c0-3.8,3.2-7,7.2-7S69.5,64.2,69.5,68z M57.7,68
			c0,2.5,2,4.6,4.6,4.6s4.6-2.1,4.6-4.6s-2-4.6-4.6-4.6S57.7,65.5,57.7,68z"/>
		<path class="st0" d="M84.1,74.8l-7.2-9.5v9.5h-2.5V61.3h2.7l7.2,9.5v-9.5h2.5v13.5H84.1z"/>
		<path class="st0" d="M106,68c0,3.8-3.2,7-7.2,7c-4,0-7.2-3.1-7.2-7c0-3.8,3.2-7,7.2-7C102.8,61.1,106,64.2,106,68z M94.3,68
			c0,2.5,2,4.6,4.6,4.6c2.6,0,4.6-2.1,4.6-4.6s-2-4.6-4.6-4.6C96.3,63.4,94.3,65.5,94.3,68z"/>
		<path class="st0" d="M117,61.3c4.2,0,5.8,1.3,5.8,4.5c0,2.2-0.9,3.6-3,4.1l3.4,5h-2.9l-3.1-4.7c-0.3,0-0.5,0-0.9,0h-2.8v4.6h-2.5
			V61.3L117,61.3z M113.6,68.2l3.5,0c2.3,0,3.1-0.7,3.1-2.3c0-1.7-0.9-2.3-3.1-2.3h-3.5V68.2z"/>
		<path class="st0" d="M138.2,62.5l-1.1,1.9c-1.5-0.8-3.3-1.3-4.8-1.3c-1.2,0-2.3,0.5-2.3,1.7c0,0.8,0.4,1.1,2.9,1.7
			c3.3,0.9,5.5,1.5,5.5,4.3c0,2.7-2.3,4.1-5.5,4.1c-2.3,0-4.6-0.6-6.3-1.8l1.1-1.9c1.6,1,3.6,1.5,5.5,1.5c1.3,0,2.5-0.5,2.5-1.6
			c0-1.4-0.9-1.5-3.6-2.2c-3.2-0.8-4.9-1.5-4.9-3.8c0-2.8,2.4-4.1,5.3-4.1C134.7,61.1,136.7,61.6,138.2,62.5z"/>
	</g>
	<g>
		<polygon id="XMLID_18_" class="st0" points="47.1,17.1 47.1,48.1 49.5,48.4 49.5,50.3 37.5,50.3 37.5,48.4 40,48.1 40,34 24.7,34 
			24.7,48.1 27,48.4 27,50.3 15.2,50.3 15.2,48.4 17.6,48.1 17.6,17.1 15.2,16.8 15.2,15 27,15 27,16.8 24.7,17.1 24.7,30.4 
			40,30.4 40,17.1 37.5,16.8 37.5,15 49.5,15 49.5,16.8 		"/>
		<polygon id="XMLID_17_" class="st0" points="63.5,48.3 65.8,48.6 65.8,50.3 54.7,50.3 54.7,48.6 57,48.3 57,27.1 54.7,26.8 
			54.7,25.2 63.5,25.2 		"/>
		<polygon id="XMLID_16_" class="st0" points="70.6,48.7 72.8,48.4 72.8,16.9 70.6,16.6 70.6,15 79.4,15 79.4,48.4 81.6,48.7 
			81.6,50.3 70.6,50.3 		"/>
		<path id="XMLID_15_" class="st0" d="M95.1,25.2h5.9v2.4h-5.9v14.9c0,3.9,0.8,5.1,4.3,5.1c1.3,0,2.4,0,3.5-0.3V49
			c-3.2,1.1-5.9,1.6-8.2,1.6c-5.1,0-6.3-2.3-6.3-6.7V27.5h-4.6v-2.4h4.8v-5.2l6.4-1.9V25.2z"/>
		<path id="XMLID_12_" class="st0" d="M130.8,38c0,7.8-5.3,13-13.6,13c-8,0-13.2-3.4-13.2-13c0-8.1,5.3-13.5,13.6-13.5
			C125.8,24.5,130.8,29.3,130.8,38 M123.5,37.8c0-7.9-2.4-11.4-6.2-11.4c-3.7,0-6.1,3.3-6.1,11.4c0,8,2.4,11.3,6.1,11.3
			C121.3,49.1,123.5,45.9,123.5,37.8"/>
		<path id="XMLID_11_" class="st0" d="M160.8,48.6v1.6h-11.1v-1.6l2.2-0.3V34c0-4-1.5-5.7-4.5-5.7c-1.4,0-3.6,1-5.2,2.1v17.9
			l2.3,0.3v1.6h-11.1v-1.6l2.3-0.3V27.3l-2.3-0.3v-1.8h8.9v3.5c2.8-2.2,5.4-4,9.1-4c5,0,7.2,2.9,7.2,8.6v15.1L160.8,48.6z"/>
		<path id="XMLID_10_" class="st0" d="M63.8,18.5c0,1.9-1.6,3.5-3.6,3.5c-2,0-3.6-1.6-3.6-3.5c0-1.9,1.6-3.5,3.6-3.5
			C62.2,15,63.8,16.6,63.8,18.5"/>
	</g>
</g>
</svg>
