<?xml version="1.0" encoding="utf-8"?>
<!-- Generator: Adobe Illustrator 22.1.0, SVG Export Plug-In . SVG Version: 6.00 Build 0)  -->
<svg version="1.1" id="Layer_1" xmlns="http://www.w3.org/2000/svg" xmlns:xlink="http://www.w3.org/1999/xlink" x="0px" y="0px"
	 viewBox="0 0 7 26" style="enable-background:new 0 0 7 26;" xml:space="preserve">
<style type="text/css">
	.st0{fill:#E9E7E8;}
</style>
<g>
	<g>
		<path class="st0" d="M3.5,7C1.6,7,0,5.4,0,3.5S1.6,0,3.5,0S7,1.6,7,3.5S5.4,7,3.5,7z M3.5,1C2.1,1,1,2.1,1,3.5S2.1,6,3.5,6
			S6,4.9,6,3.5S4.9,1,3.5,1z"/>
	</g>
	<g>
		<path class="st0" d="M3.5,16.5C1.6,16.5,0,14.9,0,13s1.6-3.5,3.5-3.5S7,11.1,7,13S5.4,16.5,3.5,16.5z M3.5,10.5
			C2.1,10.5,1,11.6,1,13c0,1.4,1.1,2.5,2.5,2.5S6,14.4,6,13C6,11.6,4.9,10.5,3.5,10.5z"/>
	</g>
	<g>
		<path class="st0" d="M3.5,26C1.6,26,0,24.4,0,22.5S1.6,19,3.5,19S7,20.6,7,22.5S5.4,26,3.5,26z M3.5,20C2.1,20,1,21.1,1,22.5
			S2.1,25,3.5,25S6,23.9,6,22.5S4.9,20,3.5,20z"/>
	</g>
</g>
</svg>
