<?xml version="1.0" encoding="utf-8"?>
<!-- Generator: Adobe Illustrator 22.1.0, SVG Export Plug-In . SVG Version: 6.00 Build 0)  -->
<svg version="1.1" id="Layer_1" xmlns="http://www.w3.org/2000/svg" xmlns:xlink="http://www.w3.org/1999/xlink" x="0px" y="0px"
	 viewBox="0 0 27 27" style="enable-background:new 0 0 27 27;" xml:space="preserve">
<style type="text/css">
	.st0{fill:#E9E7E8;}
</style>
<g>
	<g id="chat_4_">
		<g>
			<path class="st0" d="M0.5,26.5L2.2,20c-1.1-2-1.7-4.2-1.7-6.5c0-7.2,5.8-13,13-13s13,5.8,13,13c0,7.2-5.8,13-13,13
				c-2.3,0-4.5-0.6-6.5-1.7L0.5,26.5z M7.2,23.7l0.2,0.1c1.9,1.1,4,1.7,6.1,1.7c6.6,0,12-5.4,12-12c0-6.6-5.4-12-12-12
				c-6.6,0-12,5.4-12,12c0,2.2,0.6,4.3,1.7,6.1l0.1,0.2l-1.4,5.3L7.2,23.7z"/>
		</g>
		<g>
			<rect x="7.5" y="10" class="st0" width="12" height="1"/>
		</g>
		<g>
			<rect x="7.5" y="13" class="st0" width="12" height="1"/>
		</g>
		<g>
			<rect x="7.5" y="16" class="st0" width="12" height="1"/>
		</g>
	</g>
</g>
</svg>
